<svg viewBox="0 0 800 900" xmlns="http://www.w3.org/2000/svg">
  <!-- Simplified Africa map with country paths -->
  <g id="africa-map">
    <!-- North Africa -->
    <path id="EG" d="M550 150 L580 140 L600 160 L590 180 L560 170 Z" fill="#E8F4FD" stroke="#1A395B" stroke-width="0.5"/>
    <path id="LY" d="M520 140 L550 150 L540 170 L510 160 Z" fill="#E8F4FD" stroke="#1A395B" stroke-width="0.5"/>
    <path id="TN" d="M500 130 L520 140 L510 160 L490 150 Z" fill="#E8F4FD" stroke="#1A395B" stroke-width="0.5"/>
    <path id="DZ" d="M470 120 L500 130 L490 150 L460 140 Z" fill="#E8F4FD" stroke="#1A395B" stroke-width="0.5"/>
    <path id="MA" d="M450 110 L470 120 L460 140 L440 130 Z" fill="#E8F4FD" stroke="#1A395B" stroke-width="0.5"/>
    
    <!-- West Africa -->
    <path id="NG" d="M480 280 L510 270 L520 300 L490 310 Z" fill="#C7D7EF" stroke="#1A395B" stroke-width="0.5"/>
    <path id="GH" d="M450 290 L480 280 L470 310 L440 320 Z" fill="#E8F4FD" stroke="#1A395B" stroke-width="0.5"/>
    <path id="CI" d="M440 310 L470 300 L460 330 L430 340 Z" fill="#E8F4FD" stroke="#1A395B" stroke-width="0.5"/>
    <path id="SN" d="M420 250 L450 240 L440 270 L410 280 Z" fill="#E8F4FD" stroke="#1A395B" stroke-width="0.5"/>
    <path id="ML" d="M410 230 L440 220 L430 250 L400 260 Z" fill="#E8F4FD" stroke="#1A395B" stroke-width="0.5"/>
    
    <!-- East Africa -->
    <path id="KE" d="M580 320 L610 310 L620 340 L590 350 Z" fill="#1A395B" stroke="#1A395B" stroke-width="0.5"/>
    <path id="TZ" d="M570 350 L600 340 L610 370 L580 380 Z" fill="#C7D7EF" stroke="#1A395B" stroke-width="0.5"/>
    <path id="UG" d="M590 310 L620 300 L630 330 L600 340 Z" fill="#E8F4FD" stroke="#1A395B" stroke-width="0.5"/>
    <path id="RW" d="M580 330 L600 320 L610 350 L590 360 Z" fill="#E8F4FD" stroke="#1A395B" stroke-width="0.5"/>
    <path id="ET" d="M600 280 L630 270 L640 300 L610 310 Z" fill="#C7D7EF" stroke="#1A395B" stroke-width="0.5"/>
    
    <!-- Southern Africa -->
    <path id="ZA" d="M520 450 L550 440 L560 470 L530 480 Z" fill="#1A395B" stroke="#1A395B" stroke-width="0.5"/>
    <path id="ZW" d="M510 420 L540 410 L550 440 L520 450 Z" fill="#E8F4FD" stroke="#1A395B" stroke-width="0.5"/>
    <path id="BW" d="M500 400 L530 390 L540 420 L510 430 Z" fill="#E8F4FD" stroke="#1A395B" stroke-width="0.5"/>
    <path id="ZM" d="M520 430 L550 420 L560 450 L530 460 Z" fill="#E8F4FD" stroke="#1A395B" stroke-width="0.5"/>
    <path id="MW" d="M540 410 L570 400 L580 430 L550 440 Z" fill="#E8F4FD" stroke="#1A395B" stroke-width="0.5"/>
    
    <!-- Central Africa -->
    <path id="CD" d="M500 350 L530 340 L540 370 L510 380 Z" fill="#C7D7EF" stroke="#1A395B" stroke-width="0.5"/>
    <path id="CM" d="M490 320 L520 310 L530 340 L500 350 Z" fill="#E8F4FD" stroke="#1A395B" stroke-width="0.5"/>
    <path id="CF" d="M500 300 L530 290 L540 320 L510 330 Z" fill="#E8F4FD" stroke="#1A395B" stroke-width="0.5"/>
    <path id="TD" d="M480 270 L510 260 L520 290 L490 300 Z" fill="#E8F4FD" stroke="#1A395B" stroke-width="0.5"/>
    <path id="AO" d="M480 380 L510 370 L520 400 L490 410 Z" fill="#E8F4FD" stroke="#1A395B" stroke-width="0.5"/>
    <path id="GA" d="M470 340 L500 330 L510 360 L480 370 Z" fill="#E8F4FD" stroke="#1A395B" stroke-width="0.5"/>
    <path id="GQ" d="M480 360 L510 350 L520 380 L490 390 Z" fill="#E8F4FD" stroke="#1A395B" stroke-width="0.5"/>
    <path id="ST" d="M490 400 L520 390 L530 420 L500 430 Z" fill="#E8F4FD" stroke="#1A395B" stroke-width="0.5"/>
    
    <!-- Additional countries -->
    <path id="SO" d="M590 280 L620 270 L630 300 L600 310 Z" fill="#E8F4FD" stroke="#1A395B" stroke-width="0.5"/>
    <path id="DJ" d="M600 260 L630 250 L640 280 L610 290 Z" fill="#E8F4FD" stroke="#1A395B" stroke-width="0.5"/>
    <path id="ER" d="M610 290 L640 280 L650 310 L620 320 Z" fill="#E8F4FD" stroke="#1A395B" stroke-width="0.5"/>
    <path id="SD" d="M550 220 L580 210 L590 240 L560 250 Z" fill="#E8F4FD" stroke="#1A395B" stroke-width="0.5"/>
    <path id="SS" d="M560 240 L590 230 L600 260 L570 270 Z" fill="#E8F4FD" stroke="#1A395B" stroke-width="0.5"/>
    <path id="NE" d="M530 210 L560 200 L570 230 L540 240 Z" fill="#E8F4FD" stroke="#1A395B" stroke-width="0.5"/>
    <path id="BF" d="M460 280 L490 270 L500 300 L470 310 Z" fill="#E8F4FD" stroke="#1A395B" stroke-width="0.5"/>
    <path id="BJ" d="M470 300 L500 290 L510 320 L480 330 Z" fill="#E8F4FD" stroke="#1A395B" stroke-width="0.5"/>
    <path id="TG" d="M480 320 L510 310 L520 340 L490 350 Z" fill="#E8F4FD" stroke="#1A395B" stroke-width="0.5"/>
    <path id="SL" d="M430 310 L460 300 L470 330 L440 340 Z" fill="#E8F4FD" stroke="#1A395B" stroke-width="0.5"/>
    <path id="LR" d="M440 330 L470 320 L480 350 L450 360 Z" fill="#E8F4FD" stroke="#1A395B" stroke-width="0.5"/>
    <path id="GN" d="M420 290 L450 280 L460 310 L430 320 Z" fill="#E8F4FD" stroke="#1A395B" stroke-width="0.5"/>
    <path id="GW" d="M410 300 L440 290 L450 320 L420 330 Z" fill="#E8F4FD" stroke="#1A395B" stroke-width="0.5"/>
    <path id="SN" d="M400 270 L430 260 L440 290 L410 300 Z" fill="#E8F4FD" stroke="#1A395B" stroke-width="0.5"/>
    <path id="GM" d="M390 280 L420 270 L430 300 L400 310 Z" fill="#E8F4FD" stroke="#1A395B" stroke-width="0.5"/>
    <path id="MR" d="M420 250 L450 240 L460 270 L430 280 Z" fill="#E8F4FD" stroke="#1A395B" stroke-width="0.5"/>
    <path id="NA" d="M480 400 L510 390 L520 420 L490 430 Z" fill="#E8F4FD" stroke="#1A395B" stroke-width="0.5"/>
    <path id="SZ" d="M540 460 L570 450 L580 480 L550 490 Z" fill="#E8F4FD" stroke="#1A395B" stroke-width="0.5"/>
    <path id="LS" d="M530 470 L560 460 L570 490 L540 500 Z" fill="#E8F4FD" stroke="#1A395B" stroke-width="0.5"/>
    <path id="MG" d="M580 440 L610 430 L620 460 L590 470 Z" fill="#E8F4FD" stroke="#1A395B" stroke-width="0.5"/>
    <path id="MU" d="M600 480 L630 470 L640 500 L610 510 Z" fill="#E8F4FD" stroke="#1A395B" stroke-width="0.5"/>
    <path id="SC" d="M610 460 L640 450 L650 480 L620 490 Z" fill="#E8F4FD" stroke="#1A395B" stroke-width="0.5"/>
    <path id="KM" d="M590 430 L620 420 L630 450 L600 460 Z" fill="#E8F4FD" stroke="#1A395B" stroke-width="0.5"/>
    <path id="YT" d="M580 420 L610 410 L620 440 L590 450 Z" fill="#E8F4FD" stroke="#1A395B" stroke-width="0.5"/>
    <path id="RE" d="M600 440 L630 430 L640 460 L610 470 Z" fill="#E8F4FD" stroke="#1A395B" stroke-width="0.5"/>
  </g>
</svg>
