<svg width="32" height="32" viewBox="0 0 32 32" fill="none" xmlns="http://www.w3.org/2000/svg">
  <rect width="32" height="32" rx="8" fill="#1A395B"/>
  <path d="M16 8C11.5817 8 8 11.5817 8 16C8 20.4183 11.5817 24 16 24C20.4183 24 24 20.4183 24 16C24 11.5817 20.4183 8 16 8ZM16 10C19.3137 10 22 12.6863 22 16C22 19.3137 19.3137 22 16 22C12.6863 22 10 19.3137 10 16C10 12.6863 12.6863 10 16 10Z" fill="#C79639"/>
  <circle cx="16" cy="16" r="2" fill="#C79639"/>
  <path d="M16 12C14.8954 12 14 12.8954 14 14C14 15.1046 14.8954 16 16 16C17.1046 16 18 15.1046 18 14C18 12.8954 17.1046 12 16 12Z" fill="#C79639"/>
  <path d="M16 18C14.8954 18 14 18.8954 14 20C14 21.1046 14.8954 22 16 22C17.1046 22 18 21.1046 18 20C18 18.8954 17.1046 18 16 18Z" fill="#C79639"/>
  <path d="M12 14C10.8954 14 10 14.8954 10 16C10 17.1046 10.8954 18 12 18C13.1046 18 14 17.1046 14 16C14 14.8954 13.1046 14 12 14Z" fill="#C79639"/>
  <path d="M20 14C18.8954 14 18 14.8954 18 16C18 17.1046 18.8954 18 20 18C21.1046 18 22 17.1046 22 16C22 14.8954 21.1046 14 20 14Z" fill="#C79639"/>
</svg>
